<svg width="800" height="800" xmlns="http://www.w3.org/2000/svg">
 <defs>
  <clipPath id="_clipPath_A3g8G5hPEGG2L0B6hFCxamU4cc8rfqzQ">
   <rect id="svg_1" height="800" width="800"/>
  </clipPath>
 </defs>
 <g>
  <title>background</title>
  <rect fill="none" id="canvas_background" height="402" width="582" y="-1" x="-1"/>
 </g>
 <g>
  <title>Layer 1</title>
  <path id="svg_4" fill="rgb(37,211,102)" d="m787.59,800l-775.18,0c-6.854,0 -12.41,-6.668 -12.41,-14.892l0,-770.216c0,-8.225 5.556,-14.892 12.41,-14.892l775.18,0c6.854,0 12.41,6.667 12.41,14.892l0,770.216c0,8.224 -5.556,14.892 -12.41,14.892z"/>
  <path id="svg_6" fill="rgb(255,255,255)" fill-rule="evenodd" d="m508.558,450.429c-5.888,-2.946 -34.835,-17.189 -40.233,-19.156c-5.396,-1.965 -9.322,-2.945 -13.247,2.947c-3.925,5.894 -15.209,19.157 -18.644,23.087c-3.434,3.929 -6.869,4.422 -12.757,1.473c-5.887,-2.946 -24.859,-9.163 -47.349,-29.224c-17.503,-15.613 -29.32,-34.893 -32.754,-40.788c-3.435,-5.895 -0.367,-9.081 2.581,-12.016c2.649,-2.639 5.889,-6.878 8.832,-10.316c2.944,-3.437 3.925,-5.895 5.888,-9.822c1.962,-3.931 0.982,-7.368 -0.492,-10.315c-1.471,-2.947 -13.247,-31.93 -18.152,-43.72c-4.78,-11.48 -9.634,-9.925 -13.248,-10.107c-3.431,-0.171 -7.361,-0.207 -11.285,-0.207c-3.925,0 -10.304,1.474 -15.702,7.367c-5.396,5.895 -20.607,20.14 -20.607,49.12c0,28.983 21.098,56.979 24.042,60.909c2.945,3.931 41.518,63.401 100.584,88.905c14.047,6.068 25.015,9.69 33.566,12.403c14.104,4.482 26.94,3.849 37.085,2.333c11.312,-1.689 34.836,-14.242 39.743,-27.995c4.906,-13.757 4.906,-25.545 3.433,-28c-1.471,-2.456 -5.396,-3.93 -11.284,-6.878zm-107.432,146.688l-0.079,0c-35.145,-0.013 -69.616,-9.456 -99.687,-27.3l-7.152,-4.245l-74.128,19.445l19.786,-72.274l-4.656,-7.411c-19.606,-31.183 -29.962,-67.224 -29.946,-104.232c0.043,-107.987 87.906,-195.843 195.94,-195.843c52.314,0.018 101.489,20.417 138.469,57.439c36.978,37.02 57.331,86.229 57.31,138.562c-0.044,107.996 -87.905,195.859 -195.857,195.859zm166.69,-362.552c-44.489,-44.541 -103.655,-69.081 -166.692,-69.107c-129.884,0 -235.595,105.703 -235.647,235.627c-0.017,41.532 10.834,82.069 31.455,117.807l-33.43,122.108l124.919,-32.768c34.418,18.773 73.17,28.669 112.609,28.681l0.096,0l0.001,0c129.871,0 235.59,-105.713 235.643,-235.639c0.024,-62.965 -24.464,-122.169 -68.954,-166.709"/>
  <ellipse stroke="#000" ry="136.458341" rx="138.54167" id="svg_7" cy="221.397564" cx="593.750004" stroke-width="1.5" fill="#ff0000"/>
  <text stroke="#000" transform="matrix(8.341897347998838,0,0,6.67135561621929,-4371.019265525947,-1184.7747037351435) " xml:space="preserve" text-anchor="start" font-family="Helvetica, Arial, sans-serif" font-size="24" id="svg_9" y="216.608538" x="588.541667" stroke-opacity="null" stroke-width="0" fill="#ffffff">1</text>
 </g>
</svg>